{"title":"The Scout (1994) [Brendan Fraser comedy] (DVDrip,Eng+Subs)","uid":4411180,"size":727609730,"categoryP":"video","categoryS":"movies","magnet":"?xt=urn:btih:0f0a56408305b86f08b0e8203172d658f1a9c280&amp;dn=The+Scout+%281994%29+%5BBrendan+Fraser+comedy%5D+%28DVDrip%2CEng%2BSubs%29&amp;tr=udp%3A%2F%2Ftracker.openbittorrent.com%3A80&amp;tr=udp%3A%2F%2Fopen.demonii.com%3A1337&amp;tr=udp%3A%2F%2Ftracker.coppersurfer.tk%3A6969&amp;tr=udp%3A%2F%2Fexodus.desync.com%3A6969","seeders":3,"leechers":0,"uploader":"Kuthumi","files":-1,"time":1222268052,"description":" &lt;a href=&quot;http://www.imdb.com/title/tt0111094/&quot; rel=&quot;nofollow&quot; target=&quot;_NEW&quot;&gt;http://www.imdb.com/title/tt0111094/&lt;/a&gt;\n\nWith Albert Brooks and Dianne Wiest.\n\nOptional English subtitles in separate idx/sub files.\n\nHilarious comedy where Brendan Fraser is living in Mexico for some obscure reasons, and is discovered as the world's greatest baseball player. A talent scout brings him back to the Yankee Stadium in New York. But is he... mentally stable?\n\n&quot;The best comedy-fantasy about baseball ever made.&quot; Richard Schickel, TIME.\n\nWidescreen 704x368, 2-pass, great stereo AC3.\nBurn tested, runs well in both my standalone DivX players.\n\n\nFormat/Info                      : Audio Video Interleave\nFile size                        : 693 MiB\nDuration                         : 1h 41mn\nOveral bit rate                  : 950 Kbps\n\nVideo\nFormat                           : MPEG-4 Visual\nFormat profile                   : Streaming Video@L1\nFormat settings, BVOP            : Yes\nFormat settings, QPel            : No\nFormat settings, GMC             : No warppoints\nFormat settings, Matrix          : Default\nMuxing mode                      : Packet Bitstream\nCodec ID                         : XVID\nCodec ID/Hint                    : XviD\nDuration                         : 1h 41mn\nBit rate                         : 813 Kbps\nWidth                            : 704 pixels\nHeight                           : 368 pixels\nDisplay aspect ratio             : 1.913\nFrame rate                       : 23.976 fps\nResolution                       : 8 bits\nColorimetry                      : 4:2:0\nScan type                        : Progressive\nBits/(Pixel*Frame)               : 0.131\nStream size                      : 593 MiB\nWriting library                  : XviD 1.2.0.dev47 (UTC 2006-11-01)\n\nAudio\nFormat                           : MPEG Audio\nFormat version                   : Version 1\nFormat profile                   : Layer 3\nCodec ID                         : 55\nCodec ID/Hint                    : MP3\nDuration                         : 1h 41mn\nBit rate mode                    : Constant\nBit rate                         : 128 Kbps\nMinimum bit rate                 : 128 Kbps\nChannel(s)                       : 2 channels\nSampling rate                    : 48.0 KHz\nResolution                       : 16 bits\nStream size                      : 93.3 MiB\nWriting library                  : LAME3.97 \nEncoding settings                : CBR\n\nSource: NTSC IVTC 7.78 GiB (note that PAL/NTSC will give no problems for avi files)\n","torrent":{"xt":"urn:btih:0f0a56408305b86f08b0e8203172d658f1a9c280","amp;dn":"The+Scout+%281994%29+%5BBrendan+Fraser+comedy%5D+%28DVDrip%2CEng%2BSubs%29","amp;tr":["udp%3A%2F%2Ftracker.openbittorrent.com%3A80","udp%3A%2F%2Fopen.demonii.com%3A1337","udp%3A%2F%2Ftracker.coppersurfer.tk%3A6969","udp%3A%2F%2Fexodus.desync.com%3A6969"],"infoHash":"0f0a56408305b86f08b0e8203172d658f1a9c280","infoHashBuffer":{"type":"Buffer","data":[15,10,86,64,131,5,184,111,8,176,232,32,49,114,214,88,241,169,194,128]},"announce":[],"urlList":[]}}